<svg id="Invite_copy" data-name="Invite copy" xmlns="http://www.w3.org/2000/svg" viewBox="0 0 180 180"><defs><style>.cls-1{fill:#ffffff;}</style></defs><title>icon-Artboard 1</title><path class="cls-1" d="M160.4,28.07H32.74c-7.64,0-13.88,5.81-13.88,12.91V93A34.19,34.19,0,1,0,66.1,142.34H160.4c7.64,0,13.88-5.81,13.88-12.91V41C174.28,33.88,168,28.07,160.4,28.07ZM47.06,135.84a2.87,2.87,0,0,1-2.85,2.85H38.5a2.87,2.87,0,0,1-2.85-2.85v-11.4H24.25a2.87,2.87,0,0,1-2.85-2.85v-5.7A2.87,2.87,0,0,1,24.25,113h11.4v-11.4a2.87,2.87,0,0,1,2.85-2.85h5.7a2.87,2.87,0,0,1,2.85,2.85V113h11.4a2.87,2.87,0,0,1,2.85,2.85v5.7a2.87,2.87,0,0,1-2.85,2.85H47.06Zm116.13-6.41A2.76,2.76,0,0,1,160.4,132H72.89A34.21,34.21,0,0,0,30,86.48v-27a45.61,45.61,0,0,0,6,5.33c12.4,8.88,24.89,17.91,36.95,27.27,6.5,5.08,14.57,11.3,23.59,11.3h.17c9,0,17.09-6.21,23.59-11.3,12.06-9.36,24.55-18.4,36.95-27.27a45.61,45.61,0,0,0,6-5.33Zm0-85.46c.21,4.41-7.11,8.51-12.75,12.62Q133,69.3,115.65,82.17c-4.6,3.47-12.92,10.89-19,10.89h-.17c-6.07,0-14.4-7.42-19-10.89Q60.19,69.34,42.71,56.59C34.9,50.86,30,47.72,30,41a2.75,2.75,0,0,1,2.78-2.58H160.4C163.7,38.4,163.09,42,163.18,44Z"/></svg>
